<svg xmlns="http://www.w3.org/2000/svg" xmlns:xlink="http://www.w3.org/1999/xlink" width="500" zoomAndPan="magnify" viewBox="0 0 375 127.500001" height="170" preserveAspectRatio="xMidYMid meet" version="1.0"><defs><g/><clipPath id="93ca5123c0"><path d="M 248.085938 0.820312 L 374.265625 0.820312 L 374.265625 127.003906 L 248.085938 127.003906 Z M 248.085938 0.820312 " clip-rule="nonzero"/></clipPath><clipPath id="b447525496"><path d="M 311.175781 0.820312 C 276.332031 0.820312 248.085938 29.066406 248.085938 63.910156 C 248.085938 98.753906 276.332031 127.003906 311.175781 127.003906 C 346.019531 127.003906 374.265625 98.753906 374.265625 63.910156 C 374.265625 29.066406 346.019531 0.820312 311.175781 0.820312 Z M 311.175781 0.820312 " clip-rule="nonzero"/></clipPath></defs><g clip-path="url(#93ca5123c0)"><g clip-path="url(#b447525496)"><path fill="#fad02c" d="M 248.085938 0.820312 L 374.265625 0.820312 L 374.265625 127.003906 L 248.085938 127.003906 Z M 248.085938 0.820312 " fill-opacity="1" fill-rule="nonzero"/></g></g><g fill="#007bdd" fill-opacity="1"><g transform="translate(-1.468181, 94.731441)"><g><path d="M 31.703125 1.15625 C 26.015625 1.15625 21.019531 -0.0351562 16.71875 -2.421875 C 12.425781 -4.816406 9.082031 -8.191406 6.6875 -12.546875 C 4.300781 -16.910156 3.109375 -22.003906 3.109375 -27.828125 C 3.109375 -33.441406 4.285156 -38.363281 6.640625 -42.59375 C 8.992188 -46.832031 12.320312 -50.144531 16.625 -52.53125 C 20.925781 -54.925781 25.953125 -56.125 31.703125 -56.125 C 38.617188 -56.125 44.484375 -54.363281 49.296875 -50.84375 C 54.109375 -47.320312 57.222656 -42.585938 58.640625 -36.640625 L 40.8125 -36.640625 C 39.382812 -41.035156 36.347656 -43.234375 31.703125 -43.234375 C 28.078125 -43.234375 25.195312 -41.859375 23.0625 -39.109375 C 20.9375 -36.367188 19.875 -32.609375 19.875 -27.828125 C 19.875 -22.847656 20.9375 -18.9375 23.0625 -16.09375 C 25.195312 -13.25 28.078125 -11.828125 31.703125 -11.828125 C 34.472656 -11.828125 36.585938 -12.457031 38.046875 -13.71875 C 39.503906 -14.976562 40.488281 -16.738281 41 -19 L 58.75 -19 C 57.382812 -12.664062 54.265625 -7.722656 49.390625 -4.171875 C 44.515625 -0.617188 38.617188 1.15625 31.703125 1.15625 Z M 31.703125 1.15625 "/></g></g></g><g fill="#007bdd" fill-opacity="1"><g transform="translate(59.889271, 94.731441)"><g><path d="M 21.234375 1.15625 C 17.929688 1.15625 14.921875 0.546875 12.203125 -0.671875 C 9.492188 -1.898438 7.316406 -3.742188 5.671875 -6.203125 C 4.023438 -8.660156 3.203125 -11.726562 3.203125 -15.40625 C 3.203125 -18.707031 3.847656 -21.421875 5.140625 -23.546875 C 6.429688 -25.679688 8.078125 -27.394531 10.078125 -28.6875 C 12.015625 -29.976562 14.144531 -30.929688 16.46875 -31.546875 C 18.800781 -32.160156 21.003906 -32.664062 23.078125 -33.0625 L 37.328125 -35.578125 C 37.128906 -38.359375 36.382812 -40.488281 35.09375 -41.96875 C 33.863281 -43.257812 32.019531 -43.90625 29.5625 -43.90625 C 27.6875 -43.90625 25.957031 -43.273438 24.375 -42.015625 C 22.789062 -40.753906 21.804688 -38.960938 21.421875 -36.640625 L 5.234375 -36.640625 C 5.941406 -41.234375 7.523438 -44.96875 9.984375 -47.84375 C 12.441406 -50.71875 15.414062 -52.816406 18.90625 -54.140625 C 22.394531 -55.460938 25.976562 -56.125 29.65625 -56.125 C 32.894531 -56.125 36 -55.6875 38.96875 -54.8125 C 41.9375 -53.945312 44.519531 -52.578125 46.71875 -50.703125 C 48.976562 -48.765625 50.578125 -46.535156 51.515625 -44.015625 C 52.453125 -41.492188 53.019531 -38.726562 53.21875 -35.71875 C 53.414062 -32.71875 53.515625 -29.503906 53.515625 -26.078125 L 53.515625 0 L 37.21875 0 L 37.21875 -6.6875 C 36.3125 -4.550781 35.019531 -2.90625 33.34375 -1.75 C 31.726562 -0.644531 29.867188 0.113281 27.765625 0.53125 C 25.671875 0.945312 23.492188 1.15625 21.234375 1.15625 Z M 25.984375 -11.140625 C 27.921875 -11.140625 29.890625 -11.59375 31.890625 -12.5 C 34.148438 -13.539062 35.648438 -14.976562 36.390625 -16.8125 C 37.140625 -18.65625 37.546875 -21.066406 37.609375 -24.046875 L 27.625 -22.109375 C 25.8125 -21.773438 24.421875 -21.414062 23.453125 -21.03125 C 22.484375 -20.644531 21.644531 -20.128906 20.9375 -19.484375 C 20.488281 -19.035156 20.132812 -18.535156 19.875 -17.984375 C 19.613281 -17.429688 19.484375 -16.769531 19.484375 -16 C 19.484375 -14.25 20.128906 -13 21.421875 -12.25 C 22.710938 -11.507812 24.234375 -11.140625 25.984375 -11.140625 Z M 25.984375 -11.140625 "/></g></g></g><g fill="#007bdd" fill-opacity="1"><g transform="translate(118.144926, 94.731441)"><g><path d="M 30.046875 1.15625 C 27.140625 1.15625 24.195312 0.816406 21.21875 0.140625 C 18.25 -0.535156 15.441406 -1.648438 12.796875 -3.203125 C 10.148438 -4.753906 7.9375 -6.820312 6.15625 -9.40625 C 4.375 -11.988281 3.257812 -15.1875 2.8125 -19 L 18.609375 -19 C 19.515625 -16.21875 21.03125 -14.210938 23.15625 -12.984375 C 25.289062 -11.753906 27.523438 -11.140625 29.859375 -11.140625 C 32.054688 -11.140625 33.894531 -11.578125 35.375 -12.453125 C 36.863281 -13.328125 37.609375 -14.539062 37.609375 -16.09375 C 37.609375 -17.96875 36.492188 -19.273438 34.265625 -20.015625 C 32.035156 -20.753906 29.367188 -21.453125 26.265625 -22.109375 C 23.941406 -22.554688 21.535156 -23.101562 19.046875 -23.75 C 16.554688 -24.394531 14.242188 -25.316406 12.109375 -26.515625 C 9.984375 -27.710938 8.273438 -29.34375 6.984375 -31.40625 C 5.691406 -33.476562 5.046875 -36.128906 5.046875 -39.359375 C 5.046875 -43.429688 6.09375 -46.691406 8.1875 -49.140625 C 10.289062 -51.597656 13.019531 -53.375 16.375 -54.46875 C 19.738281 -55.570312 23.328125 -56.125 27.140625 -56.125 C 33.859375 -56.125 39.476562 -54.457031 44 -51.125 C 48.53125 -47.800781 51.3125 -43.003906 52.34375 -36.734375 L 36.9375 -36.734375 C 36.15625 -39.390625 34.828125 -41.25 32.953125 -42.3125 C 31.078125 -43.375 29.109375 -43.90625 27.046875 -43.90625 C 25.046875 -43.90625 23.445312 -43.535156 22.25 -42.796875 C 21.050781 -42.054688 20.453125 -41.039062 20.453125 -39.75 C 20.453125 -37.9375 21.582031 -36.65625 23.84375 -35.90625 C 26.101562 -35.164062 28.816406 -34.503906 31.984375 -33.921875 C 34.378906 -33.472656 36.835938 -32.941406 39.359375 -32.328125 C 41.878906 -31.710938 44.21875 -30.820312 46.375 -29.65625 C 48.539062 -28.5 50.285156 -26.929688 51.609375 -24.953125 C 52.941406 -22.984375 53.609375 -20.382812 53.609375 -17.15625 C 53.609375 -11.664062 51.503906 -7.238281 47.296875 -3.875 C 43.097656 -0.519531 37.347656 1.15625 30.046875 1.15625 Z M 30.046875 1.15625 "/></g></g></g><g fill="#007bdd" fill-opacity="1"><g transform="translate(175.140468, 94.731441)"><g><path d="M 16.484375 19 L 6.6875 19 L 6.6875 5.71875 L 13.28125 5.71875 C 14.632812 5.71875 15.875 5.488281 17 5.03125 C 18.132812 4.582031 19.023438 3.550781 19.671875 1.9375 L 20.15625 0.78125 L 0.671875 -54.96875 L 18.125 -54.96875 L 28.5 -16 L 37.421875 -54.96875 L 54.96875 -54.96875 L 35.484375 3.484375 C 33.671875 8.984375 31.375 12.941406 28.59375 15.359375 C 25.8125 17.785156 21.773438 19 16.484375 19 Z M 16.484375 19 "/></g></g></g><g fill="#007bdd" fill-opacity="1"><g transform="translate(230.972832, 94.731441)"><g><path d="M 21.609375 0 L 5.328125 0 L 5.328125 -73.96875 L 21.609375 -73.96875 L 21.609375 -49.046875 C 23.484375 -51.828125 25.566406 -53.703125 27.859375 -54.671875 C 30.160156 -55.640625 32.765625 -56.125 35.671875 -56.125 C 39.285156 -56.125 42.269531 -55.6875 44.625 -54.8125 C 46.988281 -53.945312 48.863281 -52.785156 50.25 -51.328125 C 51.644531 -49.867188 52.695312 -48.300781 53.40625 -46.625 C 54.507812 -44.238281 55.140625 -41.847656 55.296875 -39.453125 C 55.460938 -37.054688 55.546875 -34.148438 55.546875 -30.734375 L 55.546875 0 L 39.265625 0 L 39.265625 -30.921875 C 39.265625 -33.640625 39.082031 -35.789062 38.71875 -37.375 C 38.363281 -38.957031 37.769531 -40.164062 36.9375 -41 C 35.644531 -42.363281 33.640625 -43.046875 30.921875 -43.046875 C 29.242188 -43.046875 27.789062 -42.832031 26.5625 -42.40625 C 25.332031 -41.988281 24.363281 -41.265625 23.65625 -40.234375 C 23.007812 -39.328125 22.503906 -38.144531 22.140625 -36.6875 C 21.785156 -35.238281 21.609375 -33.316406 21.609375 -30.921875 Z M 21.609375 0 "/></g></g></g><g fill="#007bdd" fill-opacity="1"><g transform="translate(291.457907, 94.731441)"><g><path d="M 21.609375 0 L 5.328125 0 L 5.328125 -54.96875 L 21.609375 -54.96875 L 21.609375 -49.046875 C 23.484375 -51.828125 25.566406 -53.703125 27.859375 -54.671875 C 30.160156 -55.640625 32.765625 -56.125 35.671875 -56.125 L 38.09375 -56.125 L 38.09375 -40.609375 L 35 -40.609375 C 32.738281 -40.609375 30.863281 -40.347656 29.375 -39.828125 C 27.882812 -39.316406 26.65625 -38.609375 25.6875 -37.703125 C 24.269531 -36.347656 23.234375 -34.523438 22.578125 -32.234375 C 21.929688 -29.941406 21.609375 -26.921875 21.609375 -23.171875 Z M 21.609375 0 "/></g></g></g></svg>